<?xml version="1.0" encoding="UTF-8"?>
<svg width="472px" height="81px" viewBox="0 0 472 81" version="1.1" xmlns="http://www.w3.org/2000/svg" xmlns:xlink="http://www.w3.org/1999/xlink">
    <!-- Generator: Sketch 62 (91390) - https://sketch.com -->
    <title>Group</title>
    <desc>Created with Sketch.</desc>
    <g id="Logo" stroke="none" stroke-width="1" fill="none" fill-rule="evenodd">
        <g id="Artboard-Copy" transform="translate(-14.000000, -1339.000000)">
            <g id="Group" transform="translate(8.000000, 1332.000000)">
                <path d="M138.325,86 C140.495,86 142.245,85.79 143.575,85.37 C144.905,84.95 145.8325,84.2325 146.3575,83.2175 C146.8825,82.2025 147.1975,81.31 147.3025,80.54 C147.4075,79.77 147.46,78.58 147.46,76.97 L147.46,76.97 L147.46,24.155 L167.515,24.155 C169.825,24.155 171.61,23.84 172.87,23.21 C173.71,22.79 174.305,22.0375 174.655,20.9525 C175.005,19.8675 175.18,18.415 175.18,16.595 C175.18,14.775 175.005,13.305 174.655,12.185 C174.305,11.065 173.605,10.2425 172.555,9.7175 C171.505,9.1925 169.86,8.93 167.62,8.93 L167.62,8.93 L109.24,8.93 C106.93,8.93 105.145,9.245 103.885,9.875 C103.045,10.295 102.45,11.0475 102.1,12.1325 C101.75,13.2175 101.575,14.67 101.575,16.49 C101.575,18.31 101.75,19.78 102.1,20.9 C102.45,22.02 103.15,22.8425 104.2,23.3675 C105.25,23.8925 106.895,24.155 109.135,24.155 L109.135,24.155 L129.295,24.155 L129.295,76.865 C129.295,78.475 129.3475,79.6825 129.4525,80.4875 C129.5575,81.2925 129.8725,82.2025 130.3975,83.2175 C130.9225,84.2325 131.8325,84.95 133.1275,85.37 C134.4225,85.79 136.155,86 138.325,86 Z M227.312206,87.05 C228.677206,87.05 230.549706,86.455 232.929706,85.265 C236.989706,83.235 239.019706,80.96 239.019706,78.44 C239.019706,77.25 238.424706,75.465 237.234706,73.085 L237.234706,73.085 L208.884706,14.495 C207.064706,10.855 204.264706,9.035 200.484706,9.035 C198.734706,9.035 197.072206,9.525 195.497206,10.505 C193.922206,11.485 192.749706,12.78 191.979706,14.39 L191.979706,14.39 L163.629706,73.085 C162.439706,75.465 161.844706,77.25 161.844706,78.44 C161.844706,80.96 163.874706,83.2 167.934706,85.16 C170.314706,86.35 172.187206,86.945 173.552206,86.945 C174.917206,86.945 176.037206,86.6125 176.912206,85.9475 C177.787206,85.2825 178.417206,84.635 178.802206,84.005 C179.187206,83.375 179.729706,82.36 180.429706,80.96 L180.429706,80.96 L185.889706,69.62 L214.974706,69.62 L220.434706,80.96 C221.134706,82.36 221.677206,83.41 222.062206,84.11 C222.447206,84.81 223.077206,85.475 223.952206,86.105 C224.827206,86.735 225.947206,87.05 227.312206,87.05 Z M207.414706,54.08 L193.449706,54.08 L200.379706,39.695 L207.414706,54.08 Z M280.229412,87.05 C291.989412,87.05 300.809412,84.005 306.689412,77.915 C308.649412,75.885 309.629412,73.75 309.629412,71.51 L309.629412,71.51 L309.629412,48.41 C309.629412,45.82 309.279412,43.86 308.579412,42.53 C307.739412,40.71 305.429412,39.73 301.649412,39.59 L301.649412,39.59 L283.169412,39.59 C281.069412,39.59 279.389412,39.905 278.129412,40.535 C277.289412,40.955 276.711912,41.725 276.396912,42.845 C276.081912,43.965 275.924412,45.4525 275.924412,47.3075 C275.924412,49.1625 276.064412,50.6325 276.344412,51.7175 C276.624412,52.8025 277.219412,53.625 278.129412,54.185 C279.039412,54.745 280.579412,55.025 282.749412,55.025 L282.749412,55.025 L291.044412,55.025 L291.044412,66.47 C287.964412,67.73 284.499412,68.36 280.649412,68.36 C275.329412,68.36 270.569412,66.2425 266.369412,62.0075 C262.169412,57.7725 260.069412,52.6275 260.069412,46.5725 C260.069412,40.5175 262.134412,35.6175 266.264412,31.8725 C270.394412,28.1275 275.119412,26.255 280.439412,26.255 C284.499412,26.255 287.999412,27.2175 290.939412,29.1425 C293.879412,31.0675 296.014412,32.03 297.344412,32.03 C299.584412,32.03 302.069412,30.175 304.799412,26.465 C306.409412,24.225 307.214412,22.2475 307.214412,20.5325 C307.214412,18.8175 306.269412,17.26 304.379412,15.86 C297.029412,10.4 289.224412,7.67 280.964412,7.67 C270.324412,7.67 261.084412,11.3975 253.244412,18.8525 C245.404412,26.3075 241.484412,35.6 241.484412,46.73 C241.484412,57.86 245.334412,67.3625 253.034412,75.2375 C260.734412,83.1125 269.799412,87.05 280.229412,87.05 Z M331.534118,86 C336.014118,86 338.744118,85.055 339.724118,83.165 C340.284118,82.115 340.616618,81.205 340.721618,80.435 C340.826618,79.665 340.879118,78.44 340.879118,76.76 L340.879118,76.76 L340.879118,18.38 C340.879118,15.93 340.704118,14.11 340.354118,12.92 C339.444118,10.33 336.539118,9.035 331.639118,9.035 C327.159118,9.035 324.429118,9.98 323.449118,11.87 C322.889118,12.92 322.556618,13.8475 322.451618,14.6525 C322.346618,15.4575 322.294118,16.665 322.294118,18.275 L322.294118,18.275 L322.294118,76.655 C322.294118,79.105 322.504118,80.89 322.924118,82.01 C323.764118,84.67 326.634118,86 331.534118,86 Z M362.783824,86 C367.263824,86 369.993824,85.055 370.973824,83.165 C371.533824,82.115 371.866324,81.205 371.971324,80.435 C372.076324,79.665 372.128824,78.44 372.128824,76.76 L372.128824,56.915 L392.708824,56.915 C395.158824,56.915 396.943824,56.74 398.063824,56.39 C400.723824,55.48 402.053824,52.575 402.053824,47.675 C402.053824,43.195 401.143824,40.43 399.323824,39.38 C398.273824,38.82 397.346324,38.4875 396.541324,38.3825 C395.736324,38.2775 394.493824,38.225 392.813824,38.225 L392.813824,38.225 L372.128824,38.225 L372.128824,27.62 L404.612127,27.6191964 C406.114091,27.6122321 407.238824,27.56 407.986324,27.4625 C408.791324,27.3575 409.718824,27.0425 410.768824,26.5175 C411.818824,25.9925 412.553824,25.065 412.973824,23.735 C413.393824,22.405 413.603824,20.62 413.603824,18.38 C413.603824,16.14 413.393824,14.355 412.973824,13.025 C412.553824,11.695 411.836324,10.75 410.821324,10.19 C409.806324,9.63 408.896324,9.2975 408.091324,9.1925 C407.286324,9.0875 406.078824,9.035 404.468824,9.035 L404.468824,9.035 L363.098824,9.035 C359.388824,9.035 356.868824,9.6825 355.538824,10.9775 C354.208824,12.2725 353.543824,14.705 353.543824,18.275 L353.543824,18.275 L353.543824,76.655 C353.543824,79.105 353.753824,80.89 354.173824,82.01 C355.013824,84.67 357.883824,86 362.783824,86 Z M449.048529,87.05 C455.488529,87.05 461.543529,85.195 467.213529,81.485 C470.153529,79.595 472.533529,76.9175 474.353529,73.4525 C476.173529,69.9875 477.083529,65.98 477.083529,61.43 C477.083529,56.88 476.191029,53.0475 474.406029,49.9325 C472.621029,46.8175 470.398529,44.63 467.738529,43.37 C465.078529,42.11 462.173529,41.0425 459.023529,40.1675 C455.873529,39.2925 452.968529,38.645 450.308529,38.225 C447.648529,37.805 445.426029,37 443.641029,35.81 C441.856029,34.62 440.963529,33.0625 440.963529,31.1375 C440.963529,29.2125 441.716029,27.7075 443.221029,26.6225 C444.726029,25.5375 446.616029,24.995 448.891029,24.995 C451.166029,24.995 453.038529,25.45 454.508529,26.36 C454.998529,26.71 455.541029,27.165 456.136029,27.725 C456.731029,28.285 457.133529,28.635 457.343529,28.775 C459.513529,30.175 461.333529,30.875 462.803529,30.875 C465.323529,30.875 467.773529,29.125 470.153529,25.625 C471.833529,23.175 472.673529,21.25 472.673529,19.85 C472.673529,18.45 471.588529,16.735 469.418529,14.705 L469.418529,14.705 L466.793529,12.71 C465.463529,11.59 463.066029,10.4875 459.601029,9.4025 C456.136029,8.3175 452.303529,7.775 448.103529,7.775 C440.193529,7.775 433.946029,10.0675 429.361029,14.6525 C424.776029,19.2375 422.483529,24.61 422.483529,30.77 C422.483529,35.25 423.376029,39.0825 425.161029,42.2675 C426.946029,45.4525 429.168529,47.78 431.828529,49.25 C434.488529,50.72 437.358529,51.9975 440.438529,53.0825 C443.518529,54.1675 446.388529,54.955 449.048529,55.445 C451.708529,55.935 453.931029,56.7225 455.716029,57.8075 C457.501029,58.8925 458.393529,60.24 458.393529,61.85 C458.393529,67.17 455.138529,69.83 448.628529,69.83 C447.088529,69.83 445.408529,69.2875 443.588529,68.2025 C441.768529,67.1175 440.368529,65.98 439.388529,64.79 C435.888529,61.29 433.158529,59.54 431.198529,59.54 C429.238529,59.54 427.383529,60.38 425.633529,62.06 C422.623529,65 421.118529,67.3625 421.118529,69.1475 C421.118529,70.9325 422.028529,72.945 423.848529,75.185 L423.848529,75.185 L424.793529,76.34 C426.263529,78.44 428.853529,80.61 432.563529,82.85 C434.383529,84.04 436.763529,85.0375 439.703529,85.8425 C442.643529,86.6475 445.758529,87.05 449.048529,87.05 Z" id="TAGIFS" fill="#F9F9F9" fill-rule="nonzero"></path>
                <g id="Group-5" transform="translate(0.200964, 0.947233)">
                    <g id="Group-3">
                        <g id="Group-2" transform="translate(21.500000, 26.500000) rotate(-5.000000) translate(-21.500000, -26.500000) translate(3.000000, 2.000000)">
                            <path d="M2.48803988,11.0842051 C2.24014626,8.34103589 12.2625048,6.56601128 32.5551156,5.75913129 C33.1069865,5.73714415 33.5721566,6.16673645 33.5941003,6.71860912 C33.5964954,6.77884369 33.5934392,6.83917145 33.5849691,6.89885559 L31.1882936,23.7868858 C31.1165145,24.2925877 30.6751749,24.6629266 30.1646913,24.645804 C24.9934265,24.4723495 21.3730601,23.9121191 19.3035918,22.9651128 C9.13681234,18.3127079 2.61999303,12.5443872 2.48803988,11.0842051 Z" id="Rectangle" fill="#F9F9F9" transform="translate(18.118402, 15.192360) rotate(22.000000) translate(-18.118402, -15.192360) "></path>
                            <path d="M6.14680524,29.7021903 C12.1695348,9.75529353 16.002203,1.46285748 17.64481,4.82488213 C20.1436589,9.93942986 20.2427798,14.7088043 20.3774802,20.322625 C20.4561917,23.6030314 19.437142,31.0376681 17.3203311,42.6265351 C17.1218443,43.7131175 16.080098,44.4330731 14.9935133,44.2345986 C14.4318928,44.1320136 13.9408853,43.7943019 13.6441866,43.3065406 L6.35273468,31.3196764 C6.05744305,30.8342455 5.98257,30.2461269 6.14680524,29.7021903 Z" id="Rectangle-Copy" fill="#FC4586" transform="translate(13.135494, 25.934628) scale(-1, 1) rotate(10.000000) translate(-13.135494, -25.934628) "></path>
                        </g>
                        <g id="Group-2-Copy" transform="translate(81.763953, 26.500000) scale(-1, 1) rotate(-5.000000) translate(-81.763953, -26.500000) translate(63.263953, 2.000000)">
                            <path d="M2.48803988,11.0842051 C2.24014626,8.34103589 12.2625048,6.56601128 32.5551156,5.75913129 C33.1069865,5.73714415 33.5721566,6.16673645 33.5941003,6.71860912 C33.5964954,6.77884369 33.5934392,6.83917145 33.5849691,6.89885559 L31.1882936,23.7868858 C31.1165145,24.2925877 30.6751749,24.6629266 30.1646913,24.645804 C24.9934265,24.4723495 21.3730601,23.9121191 19.3035918,22.9651128 C9.13681234,18.3127079 2.61999303,12.5443872 2.48803988,11.0842051 Z" id="Rectangle" fill="#F9F9F9" transform="translate(18.118402, 15.192360) rotate(22.000000) translate(-18.118402, -15.192360) "></path>
                            <path d="M6.14680524,29.7021903 C12.1695348,9.75529353 16.002203,1.46285748 17.64481,4.82488213 C20.1436589,9.93942986 20.2427798,14.7088043 20.3774802,20.322625 C20.4561917,23.6030314 19.437142,31.0376681 17.3203311,42.6265351 C17.1218443,43.7131175 16.080098,44.4330731 14.9935133,44.2345986 C14.4318928,44.1320136 13.9408853,43.7943019 13.6441866,43.3065406 L6.35273468,31.3196764 C6.05744305,30.8342455 5.98257,30.2461269 6.14680524,29.7021903 Z" id="Rectangle-Copy" fill="#FC4586" transform="translate(13.135494, 25.934628) scale(-1, 1) rotate(10.000000) translate(-13.135494, -25.934628) "></path>
                        </g>
                    </g>
                    <path d="M51.258636,8.40402385 C61.322636,8.40402385 70.060636,12.0420238 77.472636,19.3180238 C84.884636,26.5940238 88.590636,35.6210238 88.590636,46.3990238 C88.590636,57.1770238 85.054636,66.3570238 77.982636,73.9390238 C70.910636,81.5210238 62.206636,85.3120238 51.870636,85.3120238 C41.534636,85.3120238 32.745636,81.5720238 25.503636,74.0920238 C18.261636,66.6120238 14.640636,57.7040238 14.640636,47.3680238 C14.640636,41.7240238 15.660636,36.4370238 17.700636,31.5070238 C19.740636,26.5770238 22.460636,22.4460238 25.860636,19.1140238 C29.260636,15.7820238 33.170636,13.1640238 37.590636,11.2600238 C42.010636,9.35602385 46.566636,8.40402385 51.258636,8.40402385 Z M51.564636,26.4580238 C46.736636,26.4580238 42.384636,28.3450238 38.508636,32.1190238 C34.632636,35.8930238 32.694636,40.8060238 32.694636,46.8580238 C32.694636,52.9100238 34.649636,57.8230238 38.559636,61.5970238 C42.469636,65.3710238 46.838636,67.2580238 51.666636,67.2580238 C56.494636,67.2580238 60.846636,65.4220238 64.722636,61.7500238 C68.598636,58.0780238 70.536636,53.1480238 70.536636,46.9600238 C70.536636,40.7720238 68.581636,35.8080238 64.671636,32.0680238 C60.761636,28.3280238 56.392636,26.4580238 51.564636,26.4580238 Z" id="Combined-Shape" fill="#F9F9F9"></path>
                </g>
            </g>
        </g>
    </g>
</svg>